<svg version="1.1" xmlns="http://www.w3.org/2000/svg" viewBox="0 0 1605.5604256854244 1025.9722222222222" width="1605.5604256854244" height="1025.9722222222222">
  <!-- svg-source:excalidraw -->
  
  <defs>
    <style>
      @font-face {
        font-family: "Virgil";
        src: url("https://excalidraw.com/Virgil.woff2");
      }
      @font-face {
        font-family: "Cascadia";
        src: url("https://excalidraw.com/Cascadia.woff2");
      }
    </style>
  </defs>
  <rect x="0" y="0" width="1605.5604256854244" height="1025.9722222222222" fill="#ffffff"></rect><g transform="translate(352.0048701298689 278.72222222222223) rotate(0 101.5 101.5)"><path d="M101.5 0 C113.74834443234226 -1.564021376586825, 128.25883358516285 2.7455361867739114, 140.17898241792295 7.658717404790309 C152.09913125068306 12.571898622806707, 163.8724673291294 20.394176428859893, 173.0208929965607 29.479087308098386 C182.169318663992 38.56399818733688, 190.07342912997643 50.282552288958556, 195.06953642251068 62.16818268022126 C200.06564371504493 74.05381307148396, 202.90771382186364 87.90018840942156, 202.99753675176623 100.79286965567461 C203.08735968166883 113.68555090192766, 200.43849067478527 127.57018145068517, 195.60847400192628 139.52427015773958 C190.7784573290673 151.478358864794, 183.03839185214713 163.30590547869946, 174.0174367146123 172.51740189800103 C164.99648157707747 181.7288983173026, 153.33327823469807 189.71445780211198, 141.48274317671738 194.79324867354904 C129.63220811873668 199.8720395449861, 115.8059689490043 202.8105056265457, 102.91422636672817 202.99014712662336 C90.02248378445205 203.169788626701, 76.11973604986957 200.61771536762706, 64.13228768306067 195.8710976740149 C52.14483931625176 191.12447998040273, 40.26365623946462 183.46700251148482, 30.98953616587474 174.51044096495042 C21.715416092284855 165.55387941841602, 13.648795183040637 153.94659293114165, 8.487567241521361 142.13172839480853 C3.3263393000020853 130.31686385847541, 0.29161986776826865 116.51143193988841, 0.022168516759080603 103.62125374695171 C-0.24728283425010744 90.731075554015, 2.207870807261526 76.81088543003713, 6.870859135466233 64.79065923718835 C11.533847463670941 52.77043304433956, 19.108365254284088 40.83619018059647, 28.000098485987323 31.499896589858977 C36.89183171769056 22.163602999121487, 48.44263796802867 14.016312194303634, 60.22125852568565 8.772897692763422 C71.99987908334263 3.5294831912232114, 91.79203158621016 1.5015591960782853, 98.67182183192921 0.03940958061771482 C105.55161207764826 -1.4227400348428556, 101.02863697198819 -0.33176506989704774, 101.49999999999999 0 C101.97136302801178 0.33176506989704774, 101.5 0.3383333333333358, 101.5 2.030000000000001 M101.5 0 C113.74834443234226 -1.564021376586825, 128.25883358516285 2.7455361867739114, 140.17898241792295 7.658717404790309 C152.09913125068306 12.571898622806707, 163.8724673291294 20.394176428859893, 173.0208929965607 29.479087308098386 C182.169318663992 38.56399818733688, 190.07342912997643 50.282552288958556, 195.06953642251068 62.16818268022126 C200.06564371504493 74.05381307148396, 202.90771382186364 87.90018840942156, 202.99753675176623 100.79286965567461 C203.08735968166883 113.68555090192766, 200.43849067478527 127.57018145068517, 195.60847400192628 139.52427015773958 C190.7784573290673 151.478358864794, 183.03839185214713 163.30590547869946, 174.0174367146123 172.51740189800103 C164.99648157707747 181.7288983173026, 153.33327823469807 189.71445780211198, 141.48274317671738 194.79324867354904 C129.63220811873668 199.8720395449861, 115.8059689490043 202.8105056265457, 102.91422636672817 202.99014712662336 C90.02248378445205 203.169788626701, 76.11973604986957 200.61771536762706, 64.13228768306067 195.8710976740149 C52.14483931625176 191.12447998040273, 40.26365623946462 183.46700251148482, 30.98953616587474 174.51044096495042 C21.715416092284855 165.55387941841602, 13.648795183040637 153.94659293114165, 8.487567241521361 142.13172839480853 C3.3263393000020853 130.31686385847541, 0.29161986776826865 116.51143193988841, 0.022168516759080603 103.62125374695171 C-0.24728283425010744 90.731075554015, 2.207870807261526 76.81088543003713, 6.870859135466233 64.79065923718835 C11.533847463670941 52.77043304433956, 19.108365254284088 40.83619018059647, 28.000098485987323 31.499896589858977 C36.89183171769056 22.163602999121487, 48.44263796802867 14.016312194303634, 60.22125852568565 8.772897692763422 C71.99987908334263 3.5294831912232114, 91.79203158621016 1.5015591960782853, 98.67182183192921 0.03940958061771482 C105.55161207764826 -1.4227400348428556, 101.02863697198819 -0.33176506989704774, 101.49999999999999 0 C101.97136302801178 0.33176506989704774, 101.5 0.3383333333333358, 101.5 2.030000000000001" stroke="#000000" stroke-width="1" fill="none"></path></g><g transform="translate(425.0048701298689 311.72222222222223) rotate(0 27 17.5)"><text x="27" y="25" font-family="Virgil, Segoe UI Emoji" font-size="28px" fill="#000000" text-anchor="middle" style="white-space: pre;" direction="ltr">Idle</text></g><g transform="translate(955.7270923520912 198.5555555555556) rotate(0 101.49999999999994 101.5)"><path d="M101.5 0 C113.74834443234226 -1.564021376586825, 128.25883358516285 2.7455361867739114, 140.17898241792295 7.658717404790309 C152.09913125068306 12.571898622806707, 163.8724673291294 20.394176428859893, 173.0208929965607 29.479087308098386 C182.169318663992 38.56399818733688, 190.07342912997643 50.282552288958556, 195.06953642251068 62.16818268022126 C200.06564371504493 74.05381307148396, 202.90771382186364 87.90018840942156, 202.99753675176623 100.79286965567461 C203.08735968166883 113.68555090192766, 200.43849067478527 127.57018145068517, 195.60847400192628 139.52427015773958 C190.7784573290673 151.478358864794, 183.03839185214713 163.30590547869946, 174.0174367146123 172.51740189800103 C164.99648157707747 181.7288983173026, 153.33327823469807 189.71445780211198, 141.48274317671738 194.79324867354904 C129.63220811873668 199.8720395449861, 115.8059689490043 202.8105056265457, 102.91422636672817 202.99014712662336 C90.02248378445205 203.169788626701, 76.11973604986957 200.61771536762706, 64.13228768306067 195.8710976740149 C52.14483931625176 191.12447998040273, 40.26365623946462 183.46700251148482, 30.98953616587474 174.51044096495042 C21.715416092284855 165.55387941841602, 13.648795183040637 153.94659293114165, 8.487567241521361 142.13172839480853 C3.3263393000020853 130.31686385847541, 0.29161986776826865 116.51143193988841, 0.022168516759080603 103.62125374695171 C-0.24728283425010744 90.731075554015, 2.207870807261526 76.81088543003713, 6.870859135466233 64.79065923718835 C11.533847463670941 52.77043304433956, 19.108365254284088 40.83619018059647, 28.000098485987323 31.499896589858977 C36.89183171769056 22.163602999121487, 48.44263796802867 14.016312194303634, 60.22125852568565 8.772897692763422 C71.99987908334263 3.5294831912232114, 91.79203158621016 1.5015591960782853, 98.67182183192921 0.03940958061771482 C105.55161207764826 -1.4227400348428556, 101.02863697198819 -0.33176506989704774, 101.49999999999999 0 C101.97136302801178 0.33176506989704774, 101.5 0.3383333333333358, 101.5 2.030000000000001 M101.5 0 C113.74834443234226 -1.564021376586825, 128.25883358516285 2.7455361867739114, 140.17898241792295 7.658717404790309 C152.09913125068306 12.571898622806707, 163.8724673291294 20.394176428859893, 173.0208929965607 29.479087308098386 C182.169318663992 38.56399818733688, 190.07342912997643 50.282552288958556, 195.06953642251068 62.16818268022126 C200.06564371504493 74.05381307148396, 202.90771382186364 87.90018840942156, 202.99753675176623 100.79286965567461 C203.08735968166883 113.68555090192766, 200.43849067478527 127.57018145068517, 195.60847400192628 139.52427015773958 C190.7784573290673 151.478358864794, 183.03839185214713 163.30590547869946, 174.0174367146123 172.51740189800103 C164.99648157707747 181.7288983173026, 153.33327823469807 189.71445780211198, 141.48274317671738 194.79324867354904 C129.63220811873668 199.8720395449861, 115.8059689490043 202.8105056265457, 102.91422636672817 202.99014712662336 C90.02248378445205 203.169788626701, 76.11973604986957 200.61771536762706, 64.13228768306067 195.8710976740149 C52.14483931625176 191.12447998040273, 40.26365623946462 183.46700251148482, 30.98953616587474 174.51044096495042 C21.715416092284855 165.55387941841602, 13.648795183040637 153.94659293114165, 8.487567241521361 142.13172839480853 C3.3263393000020853 130.31686385847541, 0.29161986776826865 116.51143193988841, 0.022168516759080603 103.62125374695171 C-0.24728283425010744 90.731075554015, 2.207870807261526 76.81088543003713, 6.870859135466233 64.79065923718835 C11.533847463670941 52.77043304433956, 19.108365254284088 40.83619018059647, 28.000098485987323 31.499896589858977 C36.89183171769056 22.163602999121487, 48.44263796802867 14.016312194303634, 60.22125852568565 8.772897692763422 C71.99987908334263 3.5294831912232114, 91.79203158621016 1.5015591960782853, 98.67182183192921 0.03940958061771482 C105.55161207764826 -1.4227400348428556, 101.02863697198819 -0.33176506989704774, 101.49999999999999 0 C101.97136302801178 0.33176506989704774, 101.5 0.3383333333333358, 101.5 2.030000000000001" stroke="#000000" stroke-width="1" fill="none"></path></g><g transform="translate(1001.7270923520905 231.5555555555556) rotate(0 54.00000000000006 35)"><text x="54" y="25" font-family="Virgil, Segoe UI Emoji" font-size="28px" fill="#000000" text-anchor="middle" style="white-space: pre;" direction="ltr">Propose</text><text x="54" y="60" font-family="Virgil, Segoe UI Emoji" font-size="28px" fill="#000000" text-anchor="middle" style="white-space: pre;" direction="ltr">Action</text></g><g transform="translate(1297.9493145743136 812.9722222222222) rotate(0 101.5 101.5)"><path d="M101.5 0 C113.74834443234226 -1.564021376586825, 128.25883358516285 2.7455361867739114, 140.17898241792295 7.658717404790309 C152.09913125068306 12.571898622806707, 163.8724673291294 20.394176428859893, 173.0208929965607 29.479087308098386 C182.169318663992 38.56399818733688, 190.07342912997643 50.282552288958556, 195.06953642251068 62.16818268022126 C200.06564371504493 74.05381307148396, 202.90771382186364 87.90018840942156, 202.99753675176623 100.79286965567461 C203.08735968166883 113.68555090192766, 200.43849067478527 127.57018145068517, 195.60847400192628 139.52427015773958 C190.7784573290673 151.478358864794, 183.03839185214713 163.30590547869946, 174.0174367146123 172.51740189800103 C164.99648157707747 181.7288983173026, 153.33327823469807 189.71445780211198, 141.48274317671738 194.79324867354904 C129.63220811873668 199.8720395449861, 115.8059689490043 202.8105056265457, 102.91422636672817 202.99014712662336 C90.02248378445205 203.169788626701, 76.11973604986957 200.61771536762706, 64.13228768306067 195.8710976740149 C52.14483931625176 191.12447998040273, 40.26365623946462 183.46700251148482, 30.98953616587474 174.51044096495042 C21.715416092284855 165.55387941841602, 13.648795183040637 153.94659293114165, 8.487567241521361 142.13172839480853 C3.3263393000020853 130.31686385847541, 0.29161986776826865 116.51143193988841, 0.022168516759080603 103.62125374695171 C-0.24728283425010744 90.731075554015, 2.207870807261526 76.81088543003713, 6.870859135466233 64.79065923718835 C11.533847463670941 52.77043304433956, 19.108365254284088 40.83619018059647, 28.000098485987323 31.499896589858977 C36.89183171769056 22.163602999121487, 48.44263796802867 14.016312194303634, 60.22125852568565 8.772897692763422 C71.99987908334263 3.5294831912232114, 91.79203158621016 1.5015591960782853, 98.67182183192921 0.03940958061771482 C105.55161207764826 -1.4227400348428556, 101.02863697198819 -0.33176506989704774, 101.49999999999999 0 C101.97136302801178 0.33176506989704774, 101.5 0.3383333333333358, 101.5 2.030000000000001 M101.5 0 C113.74834443234226 -1.564021376586825, 128.25883358516285 2.7455361867739114, 140.17898241792295 7.658717404790309 C152.09913125068306 12.571898622806707, 163.8724673291294 20.394176428859893, 173.0208929965607 29.479087308098386 C182.169318663992 38.56399818733688, 190.07342912997643 50.282552288958556, 195.06953642251068 62.16818268022126 C200.06564371504493 74.05381307148396, 202.90771382186364 87.90018840942156, 202.99753675176623 100.79286965567461 C203.08735968166883 113.68555090192766, 200.43849067478527 127.57018145068517, 195.60847400192628 139.52427015773958 C190.7784573290673 151.478358864794, 183.03839185214713 163.30590547869946, 174.0174367146123 172.51740189800103 C164.99648157707747 181.7288983173026, 153.33327823469807 189.71445780211198, 141.48274317671738 194.79324867354904 C129.63220811873668 199.8720395449861, 115.8059689490043 202.8105056265457, 102.91422636672817 202.99014712662336 C90.02248378445205 203.169788626701, 76.11973604986957 200.61771536762706, 64.13228768306067 195.8710976740149 C52.14483931625176 191.12447998040273, 40.26365623946462 183.46700251148482, 30.98953616587474 174.51044096495042 C21.715416092284855 165.55387941841602, 13.648795183040637 153.94659293114165, 8.487567241521361 142.13172839480853 C3.3263393000020853 130.31686385847541, 0.29161986776826865 116.51143193988841, 0.022168516759080603 103.62125374695171 C-0.24728283425010744 90.731075554015, 2.207870807261526 76.81088543003713, 6.870859135466233 64.79065923718835 C11.533847463670941 52.77043304433956, 19.108365254284088 40.83619018059647, 28.000098485987323 31.499896589858977 C36.89183171769056 22.163602999121487, 48.44263796802867 14.016312194303634, 60.22125852568565 8.772897692763422 C71.99987908334263 3.5294831912232114, 91.79203158621016 1.5015591960782853, 98.67182183192921 0.03940958061771482 C105.55161207764826 -1.4227400348428556, 101.02863697198819 -0.33176506989704774, 101.49999999999999 0 C101.97136302801178 0.33176506989704774, 101.5 0.3383333333333358, 101.5 2.030000000000001" stroke="#000000" stroke-width="1" fill="none"></path></g><g transform="translate(1325.9493145743136 858.9722222222222) rotate(0 72 17.5)"><text x="72" y="25" font-family="Virgil, Segoe UI Emoji" font-size="28px" fill="#000000" text-anchor="middle" style="white-space: pre;" direction="ltr">Challenged</text></g><g><g transform="translate(574.1650322752154 360.1154315603488) rotate(0 182.3467193238548 -22.751675591139815)"><path d="M0 0 C60.78223977461827 -7.583891863713272, 303.91119887309134 -37.91945931856636, 364.6934386477096 -45.50335118227963 M0 0 C60.78223977461827 -7.583891863713272, 303.91119887309134 -37.91945931856636, 364.6934386477096 -45.50335118227963" stroke="#000000" stroke-width="1" fill="none"></path></g><g transform="translate(574.1650322752154 360.1154315603488) rotate(0 182.3467193238548 -22.751675591139815)"><path d="M337.9899474119217 -31.831352212845868 C346.09333090354 -35.98022734561696, 354.1967143951582 -40.129102478388056, 364.6934386477096 -45.50335118227963 M337.9899474119217 -31.831352212845868 C346.1246346318706 -35.99625463349842, 354.2593218518195 -40.16115705415097, 364.6934386477096 -45.50335118227963" stroke="#000000" stroke-width="1" fill="none"></path></g><g transform="translate(574.1650322752154 360.1154315603488) rotate(0 182.3467193238548 -22.751675591139815)"><path d="M335.4491860374588 -52.19466564715407 C344.3235834611569 -50.164133882857215, 353.1979808848549 -48.13360211856036, 364.6934386477096 -45.50335118227963 M335.4491860374588 -52.19466564715407 C344.35786565036057 -50.156289848969145, 353.2665452632623 -48.11791405078422, 364.6934386477096 -45.50335118227963" stroke="#000000" stroke-width="1" fill="none"></path></g></g><g><g transform="translate(1062.0036437740928 416.4118815110756) rotate(3.4682292589171326 1.165326204121584 36.42022228023677)"><path d="M0 0 C0.388442068040528 12.140074093412258, 1.9422103402026398 60.70037046706128, 2.330652408243168 72.84044456047354 M0 0 C0.388442068040528 12.140074093412258, 1.9422103402026398 60.70037046706128, 2.330652408243168 72.84044456047354" stroke="#000000" stroke-width="1" fill="none"></path></g><g transform="translate(1062.0036437740928 416.4118815110756) rotate(3.4682292589171326 1.165326204121584 36.42022228023677)"><path d="M-8.826253529316526 44.992222895518964 C-5.2228401197488985 53.9865315274745, -1.619426710181271 62.980840159430024, 2.330652408243168 72.84044456047354 M-8.826253529316526 44.992222895518964 C-4.839977541420821 54.94217657890427, -0.8537015535251165 64.89213026228956, 2.330652408243168 72.84044456047354" stroke="#000000" stroke-width="1" fill="none"></path></g><g transform="translate(1062.0036437740928 416.4118815110756) rotate(3.4682292589171326 1.165326204121584 36.42022228023677)"><path d="M11.684458450411482 44.335948204188 C8.663403122753472 53.54221784364299, 5.6423477950954615 62.748487483097975, 2.330652408243168 72.84044456047354 M11.684458450411482 44.335948204188 C8.342416075042589 54.52038374644684, 5.000373699673696 64.70481928870569, 2.330652408243168 72.84044456047354" stroke="#000000" stroke-width="1" fill="none"></path></g></g><g transform="translate(972.4770923520911 499.72222222222234) rotate(0 101.5 101.5)"><path d="M101.5 0 C113.74834443234226 -1.564021376586825, 128.25883358516285 2.7455361867739114, 140.17898241792295 7.658717404790309 C152.09913125068306 12.571898622806707, 163.8724673291294 20.394176428859893, 173.0208929965607 29.479087308098386 C182.169318663992 38.56399818733688, 190.07342912997643 50.282552288958556, 195.06953642251068 62.16818268022126 C200.06564371504493 74.05381307148396, 202.90771382186364 87.90018840942156, 202.99753675176623 100.79286965567461 C203.08735968166883 113.68555090192766, 200.43849067478527 127.57018145068517, 195.60847400192628 139.52427015773958 C190.7784573290673 151.478358864794, 183.03839185214713 163.30590547869946, 174.0174367146123 172.51740189800103 C164.99648157707747 181.7288983173026, 153.33327823469807 189.71445780211198, 141.48274317671738 194.79324867354904 C129.63220811873668 199.8720395449861, 115.8059689490043 202.8105056265457, 102.91422636672817 202.99014712662336 C90.02248378445205 203.169788626701, 76.11973604986957 200.61771536762706, 64.13228768306067 195.8710976740149 C52.14483931625176 191.12447998040273, 40.26365623946462 183.46700251148482, 30.98953616587474 174.51044096495042 C21.715416092284855 165.55387941841602, 13.648795183040637 153.94659293114165, 8.487567241521361 142.13172839480853 C3.3263393000020853 130.31686385847541, 0.29161986776826865 116.51143193988841, 0.022168516759080603 103.62125374695171 C-0.24728283425010744 90.731075554015, 2.207870807261526 76.81088543003713, 6.870859135466233 64.79065923718835 C11.533847463670941 52.77043304433956, 19.108365254284088 40.83619018059647, 28.000098485987323 31.499896589858977 C36.89183171769056 22.163602999121487, 48.44263796802867 14.016312194303634, 60.22125852568565 8.772897692763422 C71.99987908334263 3.5294831912232114, 91.79203158621016 1.5015591960782853, 98.67182183192921 0.03940958061771482 C105.55161207764826 -1.4227400348428556, 101.02863697198819 -0.33176506989704774, 101.49999999999999 0 C101.97136302801178 0.33176506989704774, 101.5 0.3383333333333358, 101.5 2.030000000000001 M101.5 0 C113.74834443234226 -1.564021376586825, 128.25883358516285 2.7455361867739114, 140.17898241792295 7.658717404790309 C152.09913125068306 12.571898622806707, 163.8724673291294 20.394176428859893, 173.0208929965607 29.479087308098386 C182.169318663992 38.56399818733688, 190.07342912997643 50.282552288958556, 195.06953642251068 62.16818268022126 C200.06564371504493 74.05381307148396, 202.90771382186364 87.90018840942156, 202.99753675176623 100.79286965567461 C203.08735968166883 113.68555090192766, 200.43849067478527 127.57018145068517, 195.60847400192628 139.52427015773958 C190.7784573290673 151.478358864794, 183.03839185214713 163.30590547869946, 174.0174367146123 172.51740189800103 C164.99648157707747 181.7288983173026, 153.33327823469807 189.71445780211198, 141.48274317671738 194.79324867354904 C129.63220811873668 199.8720395449861, 115.8059689490043 202.8105056265457, 102.91422636672817 202.99014712662336 C90.02248378445205 203.169788626701, 76.11973604986957 200.61771536762706, 64.13228768306067 195.8710976740149 C52.14483931625176 191.12447998040273, 40.26365623946462 183.46700251148482, 30.98953616587474 174.51044096495042 C21.715416092284855 165.55387941841602, 13.648795183040637 153.94659293114165, 8.487567241521361 142.13172839480853 C3.3263393000020853 130.31686385847541, 0.29161986776826865 116.51143193988841, 0.022168516759080603 103.62125374695171 C-0.24728283425010744 90.731075554015, 2.207870807261526 76.81088543003713, 6.870859135466233 64.79065923718835 C11.533847463670941 52.77043304433956, 19.108365254284088 40.83619018059647, 28.000098485987323 31.499896589858977 C36.89183171769056 22.163602999121487, 48.44263796802867 14.016312194303634, 60.22125852568565 8.772897692763422 C71.99987908334263 3.5294831912232114, 91.79203158621016 1.5015591960782853, 98.67182183192921 0.03940958061771482 C105.55161207764826 -1.4227400348428556, 101.02863697198819 -0.33176506989704774, 101.49999999999999 0 C101.97136302801178 0.33176506989704774, 101.5 0.3383333333333358, 101.5 2.030000000000001" stroke="#000000" stroke-width="1" fill="none"></path></g><g transform="translate(1019.4770923520911 534.7222222222224) rotate(0 53 35)"><text x="53" y="25" font-family="Virgil, Segoe UI Emoji" font-size="28px" fill="#000000" text-anchor="middle" style="white-space: pre;" direction="ltr">Perform</text><text x="53" y="60" font-family="Virgil, Segoe UI Emoji" font-size="28px" fill="#000000" text-anchor="middle" style="white-space: pre;" direction="ltr">Action</text></g><g><g transform="translate(1311.0206826250678 837.5620441334697) rotate(0 -83.68037740472278 -69.95356081245484)"><path d="M0 0 C-27.89345913490759 -23.317853604151612, -139.46729567453795 -116.58926802075807, -167.36075480944555 -139.90712162490968 M0 0 C-27.89345913490759 -23.317853604151612, -139.46729567453795 -116.58926802075807, -167.36075480944555 -139.90712162490968" stroke="#000000" stroke-width="1" fill="none"></path></g><g transform="translate(1311.0206826250678 837.5620441334697) rotate(0 -83.68037740472278 -69.95356081245484)"><path d="M-139.1510987698272 -129.69853180425253 C-146.15097921934634 -132.23166826654824, -153.15085966886545 -134.76480472884398, -167.36075480944555 -139.90712162490968 M-139.1510987698272 -129.69853180425253 C-148.18733041150932 -132.96858877427803, -157.22356205319144 -136.23864574430354, -167.36075480944555 -139.90712162490968" stroke="#000000" stroke-width="1" fill="none"></path></g><g transform="translate(1311.0206826250678 837.5620441334697) rotate(0 -83.68037740472278 -69.95356081245484)"><path d="M-152.31285960708874 -113.9540707449286 C-156.04681039633115 -120.39400227777024, -159.7807611855736 -126.83393381061188, -167.36075480944555 -139.90712162490968 M-152.31285960708874 -113.9540707449286 C-157.1330625396337 -122.26745745302985, -161.95326547217869 -130.5808441611311, -167.36075480944555 -139.90712162490968" stroke="#000000" stroke-width="1" fill="none"></path></g></g><g><g transform="translate(1272.2683114249112 940.2451480459872) rotate(0 -386.1334864076002 -222.1320399955496)"><path d="M0 0 C-128.71116213586672 -74.04401333184987, -643.5558106793336 -370.22006665924937, -772.2669728152003 -444.2640799910992 M0 0 C-128.71116213586672 -74.04401333184987, -643.5558106793336 -370.22006665924937, -772.2669728152003 -444.2640799910992" stroke="#000000" stroke-width="1" fill="none"></path></g><g transform="translate(1272.2683114249112 940.2451480459872) rotate(0 -386.1334864076002 -222.1320399955496)"><path d="M-742.7146514848931 -439.10071829640134 C-752.1439988020479 -440.7482075138886, -761.5733461192026 -442.3956967313758, -772.2669728152003 -444.2640799910992 M-742.7146514848931 -439.10071829640134 C-754.4352513748731 -441.14853362144447, -766.155851264853 -443.19634894648766, -772.2669728152003 -444.2640799910992" stroke="#000000" stroke-width="1" fill="none"></path></g><g transform="translate(1272.2683114249112 940.2451480459872) rotate(0 -386.1334864076002 -222.1320399955496)"><path d="M-752.947526200534 -421.31284946846586 C-759.1118396589862 -428.63596705151843, -765.2761531174385 -435.959084634571, -772.2669728152003 -444.2640799910992 M-752.947526200534 -421.31284946846586 C-760.60971629841 -430.4154234061216, -768.2719063962862 -439.51799734377727, -772.2669728152003 -444.2640799910992" stroke="#000000" stroke-width="1" fill="none"></path></g></g><g transform="translate(877.8937590187578 411.88888888888897) rotate(0 76.5 20)"><text x="76.5" y="14" font-family="Virgil, Segoe UI Emoji" font-size="16px" fill="#000000" text-anchor="middle" style="white-space: pre;" direction="ltr">Non-challengeable/</text><text x="76.5" y="34" font-family="Virgil, Segoe UI Emoji" font-size="16px" fill="#000000" text-anchor="middle" style="white-space: pre;" direction="ltr">non-blockable action</text></g><g><g transform="translate(958.9379876826954 621.2785029557938) rotate(0 -213.89771739664985 -79.86292115020257)"><path d="M0 0 C-71.29923913221661 -26.620973716734188, -356.4961956610831 -133.10486858367094, -427.7954347932997 -159.72584230040513 M0 0 C-71.29923913221661 -26.620973716734188, -356.4961956610831 -133.10486858367094, -427.7954347932997 -159.72584230040513" stroke="#000000" stroke-width="1" fill="none"></path></g><g transform="translate(958.9379876826954 621.2785029557938) rotate(0 -213.89771739664985 -79.86292115020257)"><path d="M-397.7964618542855 -159.47760329401947 C-405.8253325477437 -159.54404153133495, -413.85420324120196 -159.61047976865044, -427.7954347932997 -159.72584230040513 M-397.7964618542855 -159.47760329401947 C-406.65258482511337 -159.5508869751367, -415.50870779594123 -159.62417065625397, -427.7954347932997 -159.72584230040513" stroke="#000000" stroke-width="1" fill="none"></path></g><g transform="translate(958.9379876826954 621.2785029557938) rotate(0 -213.89771739664985 -79.86292115020257)"><path d="M-404.97445323163686 -140.2527120804779 C-411.08221933512556 -145.46446532451435, -417.1899854386142 -150.67621856855084, -427.7954347932997 -159.72584230040513 M-404.97445323163686 -140.2527120804779 C-411.7115311788035 -146.00145675267757, -418.44860912597017 -151.75020142487722, -427.7954347932997 -159.72584230040513" stroke="#000000" stroke-width="1" fill="none"></path></g></g><g transform="translate(676.0604256854245 351.9444444444444) rotate(0 52.5 10)"><text x="52.5" y="14" font-family="Virgil, Segoe UI Emoji" font-size="16px" fill="#000000" text-anchor="middle" style="white-space: pre;" direction="ltr">Action chosen</text></g><g transform="translate(1101.532647907647 779.9444444444443) rotate(0 60.5 10)"><text x="60.5" y="14" font-family="Virgil, Segoe UI Emoji" font-size="16px" fill="#000000" text-anchor="middle" style="white-space: pre;" direction="ltr">Failed challenge</text></g><g transform="translate(756.8382034632023 759.1666666666667) rotate(0 78.5 10)"><text x="78.5" y="14" font-family="Virgil, Segoe UI Emoji" font-size="16px" fill="#000000" text-anchor="middle" style="white-space: pre;" direction="ltr">Successful challenge</text></g><g transform="translate(1291.11598124098 10) rotate(0 101.5 101.5)"><path d="M101.5 0 C113.74834443234226 -1.564021376586825, 128.25883358516285 2.7455361867739114, 140.17898241792295 7.658717404790309 C152.09913125068306 12.571898622806707, 163.8724673291294 20.394176428859893, 173.0208929965607 29.479087308098386 C182.169318663992 38.56399818733688, 190.07342912997643 50.282552288958556, 195.06953642251068 62.16818268022126 C200.06564371504493 74.05381307148396, 202.90771382186364 87.90018840942156, 202.99753675176623 100.79286965567461 C203.08735968166883 113.68555090192766, 200.43849067478527 127.57018145068517, 195.60847400192628 139.52427015773958 C190.7784573290673 151.478358864794, 183.03839185214713 163.30590547869946, 174.0174367146123 172.51740189800103 C164.99648157707747 181.7288983173026, 153.33327823469807 189.71445780211198, 141.48274317671738 194.79324867354904 C129.63220811873668 199.8720395449861, 115.8059689490043 202.8105056265457, 102.91422636672817 202.99014712662336 C90.02248378445205 203.169788626701, 76.11973604986957 200.61771536762706, 64.13228768306067 195.8710976740149 C52.14483931625176 191.12447998040273, 40.26365623946462 183.46700251148482, 30.98953616587474 174.51044096495042 C21.715416092284855 165.55387941841602, 13.648795183040637 153.94659293114165, 8.487567241521361 142.13172839480853 C3.3263393000020853 130.31686385847541, 0.29161986776826865 116.51143193988841, 0.022168516759080603 103.62125374695171 C-0.24728283425010744 90.731075554015, 2.207870807261526 76.81088543003713, 6.870859135466233 64.79065923718835 C11.533847463670941 52.77043304433956, 19.108365254284088 40.83619018059647, 28.000098485987323 31.499896589858977 C36.89183171769056 22.163602999121487, 48.44263796802867 14.016312194303634, 60.22125852568565 8.772897692763422 C71.99987908334263 3.5294831912232114, 91.79203158621016 1.5015591960782853, 98.67182183192921 0.03940958061771482 C105.55161207764826 -1.4227400348428556, 101.02863697198819 -0.33176506989704774, 101.49999999999999 0 C101.97136302801178 0.33176506989704774, 101.5 0.3383333333333358, 101.5 2.030000000000001 M101.5 0 C113.74834443234226 -1.564021376586825, 128.25883358516285 2.7455361867739114, 140.17898241792295 7.658717404790309 C152.09913125068306 12.571898622806707, 163.8724673291294 20.394176428859893, 173.0208929965607 29.479087308098386 C182.169318663992 38.56399818733688, 190.07342912997643 50.282552288958556, 195.06953642251068 62.16818268022126 C200.06564371504493 74.05381307148396, 202.90771382186364 87.90018840942156, 202.99753675176623 100.79286965567461 C203.08735968166883 113.68555090192766, 200.43849067478527 127.57018145068517, 195.60847400192628 139.52427015773958 C190.7784573290673 151.478358864794, 183.03839185214713 163.30590547869946, 174.0174367146123 172.51740189800103 C164.99648157707747 181.7288983173026, 153.33327823469807 189.71445780211198, 141.48274317671738 194.79324867354904 C129.63220811873668 199.8720395449861, 115.8059689490043 202.8105056265457, 102.91422636672817 202.99014712662336 C90.02248378445205 203.169788626701, 76.11973604986957 200.61771536762706, 64.13228768306067 195.8710976740149 C52.14483931625176 191.12447998040273, 40.26365623946462 183.46700251148482, 30.98953616587474 174.51044096495042 C21.715416092284855 165.55387941841602, 13.648795183040637 153.94659293114165, 8.487567241521361 142.13172839480853 C3.3263393000020853 130.31686385847541, 0.29161986776826865 116.51143193988841, 0.022168516759080603 103.62125374695171 C-0.24728283425010744 90.731075554015, 2.207870807261526 76.81088543003713, 6.870859135466233 64.79065923718835 C11.533847463670941 52.77043304433956, 19.108365254284088 40.83619018059647, 28.000098485987323 31.499896589858977 C36.89183171769056 22.163602999121487, 48.44263796802867 14.016312194303634, 60.22125852568565 8.772897692763422 C71.99987908334263 3.5294831912232114, 91.79203158621016 1.5015591960782853, 98.67182183192921 0.03940958061771482 C105.55161207764826 -1.4227400348428556, 101.02863697198819 -0.33176506989704774, 101.49999999999999 0 C101.97136302801178 0.33176506989704774, 101.5 0.3383333333333358, 101.5 2.030000000000001" stroke="#000000" stroke-width="1" fill="none"></path></g><g transform="translate(1339.61598124098 45) rotate(0 51.5 17.5)"><text x="51.5" y="25" font-family="Virgil, Segoe UI Emoji" font-size="28px" fill="#000000" text-anchor="middle" style="white-space: pre;" direction="ltr">Blocked</text></g><g><g transform="translate(1150.1887537086277 225.4296994015289) rotate(0 66.32334542080082 -33.214204168591884)"><path d="M0 0 C22.107781806933605 -11.071401389530628, 110.53890903466804 -55.35700694765314, 132.64669084160164 -66.42840833718377 M0 0 C22.107781806933605 -11.071401389530628, 110.53890903466804 -55.35700694765314, 132.64669084160164 -66.42840833718377" stroke="#000000" stroke-width="1" fill="none"></path></g><g transform="translate(1150.1887537086277 225.4296994015289) rotate(0 66.32334542080082 -33.214204168591884)"><path d="M112.03457705710608 -44.63068448043652 C119.75621456196978 -52.79647105684907, 127.47785206683349 -60.96225763326163, 132.64669084160164 -66.42840833718377 M112.03457705710608 -44.63068448043652 C120.11344448904516 -53.174248871641275, 128.19231192098425 -61.71781326284603, 132.64669084160164 -66.42840833718377" stroke="#000000" stroke-width="1" fill="none"></path></g><g transform="translate(1150.1887537086277 225.4296994015289) rotate(0 66.32334542080082 -33.214204168591884)"><path d="M102.84558880156692 -62.97959445420343 C114.0095727386095 -64.27157697014253, 125.1735566756521 -65.56355948608163, 132.64669084160164 -66.42840833718377 M102.84558880156692 -62.97959445420343 C114.52605763772428 -64.33134859496445, 126.20652647388164 -65.68310273572547, 132.64669084160164 -66.42840833718377" stroke="#000000" stroke-width="1" fill="none"></path></g></g><g><g transform="translate(24.00487012986889 102.72222222222223) rotate(0 0 0)"><path d="M0 0 C0 0, 0 0, 0 0 M0 0 C0 0, 0 0, 0 0" stroke="#000000" stroke-width="1" fill="none"></path></g><g transform="translate(24.00487012986889 102.72222222222223) rotate(0 0 0)"><path d="MNaN NaN CNaN NaN, NaN NaN, NaN NaN MNaN NaN CNaN NaN, NaN NaN, NaN NaN" stroke="#000000" stroke-width="1" fill="none"></path></g><g transform="translate(24.00487012986889 102.72222222222223) rotate(0 0 0)"><path d="MNaN NaN CNaN NaN, NaN NaN, NaN NaN MNaN NaN CNaN NaN, NaN NaN, NaN NaN" stroke="#000000" stroke-width="1" fill="none"></path></g></g><g><g transform="translate(1277.9797826369513 77.11956672989893) rotate(0 -375.17962775873673 106.1872681526331)"><path d="M0 0 C-125.05987591957891 35.395756050877694, -625.2993795978946 176.97878025438848, -750.3592555174735 212.37453630526616 M0 0 C-125.05987591957891 35.395756050877694, -625.2993795978946 176.97878025438848, -750.3592555174735 212.37453630526616" stroke="#000000" stroke-width="1" fill="none"></path></g><g transform="translate(1277.9797826369513 77.11956672989893) rotate(0 -375.17962775873673 106.1872681526331)"><path d="M-726.0282995446762 194.82447700480213 C-731.3646895871138 198.67364601402207, -736.7010796295515 202.522815023242, -750.3592555174735 212.37453630526616 M-726.0282995446762 194.82447700480213 C-735.6788059882094 201.78544313177537, -745.3293124317427 208.7464092587486, -750.3592555174735 212.37453630526616" stroke="#000000" stroke-width="1" fill="none"></path></g><g transform="translate(1277.9797826369513 77.11956672989893) rotate(0 -375.17962775873673 106.1872681526331)"><path d="M-720.4397012311373 214.5700479328799 C-727.0018113161781 214.0885170632851, -733.5639214012189 213.6069861936903, -750.3592555174735 212.37453630526616 M-720.4397012311373 214.5700479328799 C-732.3068408433559 213.6992313840839, -744.1739804555746 212.82841483528793, -750.3592555174735 212.37453630526616" stroke="#000000" stroke-width="1" fill="none"></path></g></g><g transform="translate(786.6159812409802 143.94444444444449) rotate(0 62.5 10)"><text x="62.5" y="14" font-family="Virgil, Segoe UI Emoji" font-size="16px" fill="#000000" text-anchor="middle" style="white-space: pre;" direction="ltr">Successful block</text></g><g transform="translate(1208.3382034632023 226.05555555555563) rotate(0 57 10)"><text x="57" y="14" font-family="Virgil, Segoe UI Emoji" font-size="16px" fill="#000000" text-anchor="middle" style="white-space: pre;" direction="ltr">Blocked action</text></g><g transform="translate(1198.8382034632023 474.38888888888897) rotate(0 66.5 10)"><text x="66.5" y="14" font-family="Virgil, Segoe UI Emoji" font-size="16px" fill="#000000" text-anchor="middle" style="white-space: pre;" direction="ltr">Action challenged</text></g><g transform="translate(1469.5604256854244 408.1666666666667) rotate(0 63 10)"><text x="63" y="14" font-family="Virgil, Segoe UI Emoji" font-size="16px" fill="#000000" text-anchor="middle" style="white-space: pre;" direction="ltr">Block challenged</text></g><g transform="translate(722.3382034632024 511.38888888888897) rotate(0 66 10)"><text x="66" y="14" font-family="Virgil, Segoe UI Emoji" font-size="16px" fill="#000000" text-anchor="middle" style="white-space: pre;" direction="ltr">Action performed</text></g><g><g transform="translate(1430.4768670086455 230.26919959876926) rotate(0 6.183038157294277 289.10190456370765)"><path d="M0 0 C2.0610127190980925 96.36730152123589, 10.305063595490461 481.8365076061794, 12.366076314588554 578.2038091274153 M0 0 C2.0610127190980925 96.36730152123589, 10.305063595490461 481.8365076061794, 12.366076314588554 578.2038091274153" stroke="#000000" stroke-width="1" fill="none"></path></g><g transform="translate(1430.4768670086455 230.26919959876926) rotate(0 6.183038157294277 289.10190456370765)"><path d="M1.5050379676790495 550.2388695418028 C3.9111818642109006 556.434195122248, 6.317325760742752 562.629520702693, 12.366076314588554 578.2038091274153 M1.5050379676790495 550.2388695418028 C3.831968738098294 556.230237616955, 6.158899508517538 562.2216056921071, 12.366076314588554 578.2038091274153" stroke="#000000" stroke-width="1" fill="none"></path></g><g transform="translate(1430.4768670086455 230.26919959876926) rotate(0 6.183038157294277 289.10190456370765)"><path d="M22.02155491370074 549.8000816779751 C19.88248955389944 556.0926158960015, 17.74342419409814 562.3851501140279, 12.366076314588554 578.2038091274153 M22.02155491370074 549.8000816779751 C19.95291013612367 555.8854581664497, 17.8842653585466 561.9708346549243, 12.366076314588554 578.2038091274153" stroke="#000000" stroke-width="1" fill="none"></path></g></g><g><g transform="translate(1135.3081716959255 396.39434009494374) rotate(0 115.35368805604571 205.29361669263625)"><path d="M0 0 C38.45122935201524 68.43120556421208, 192.25614676007618 342.15602782106043, 230.70737611209142 410.5872333852725 M0 0 C38.45122935201524 68.43120556421208, 192.25614676007618 342.15602782106043, 230.70737611209142 410.5872333852725" stroke="#000000" stroke-width="1" fill="none"></path></g><g transform="translate(1135.3081716959255 396.39434009494374) rotate(0 115.35368805604571 205.29361669263625)"><path d="M207.95260660891705 391.03677393140276 C216.97569388657718 398.7892366380021, 225.9987811642373 406.54169934460134, 230.70737611209142 410.5872333852725 M207.95260660891705 391.03677393140276 C216.70302515942268 398.55496492218316, 225.45344370992828 406.0731559129635, 230.70737611209142 410.5872333852725" stroke="#000000" stroke-width="1" fill="none"></path></g><g transform="translate(1135.3081716959255 396.39434009494374) rotate(0 115.35368805604571 205.29361669263625)"><path d="M225.84300448035802 380.9842286622991 C227.7719033768281 392.72288834237673, 229.70080227329822 404.46154802245445, 230.70737611209142 410.5872333852725 M225.84300448035802 380.9842286622991 C227.71361396980748 392.36815771692983, 229.58422345925695 403.7520867715605, 230.70737611209142 410.5872333852725" stroke="#000000" stroke-width="1" fill="none"></path></g></g><g transform="translate(10 289.0975829725838) rotate(0 101.5 101.5)"><path d="M101.5 0 C113.74834443234226 -1.564021376586825, 128.25883358516285 2.7455361867739114, 140.17898241792295 7.658717404790309 C152.09913125068306 12.571898622806707, 163.8724673291294 20.394176428859893, 173.0208929965607 29.479087308098386 C182.169318663992 38.56399818733688, 190.07342912997643 50.282552288958556, 195.06953642251068 62.16818268022126 C200.06564371504493 74.05381307148396, 202.90771382186364 87.90018840942156, 202.99753675176623 100.79286965567461 C203.08735968166883 113.68555090192766, 200.43849067478527 127.57018145068517, 195.60847400192628 139.52427015773958 C190.7784573290673 151.478358864794, 183.03839185214713 163.30590547869946, 174.0174367146123 172.51740189800103 C164.99648157707747 181.7288983173026, 153.33327823469807 189.71445780211198, 141.48274317671738 194.79324867354904 C129.63220811873668 199.8720395449861, 115.8059689490043 202.8105056265457, 102.91422636672817 202.99014712662336 C90.02248378445205 203.169788626701, 76.11973604986957 200.61771536762706, 64.13228768306067 195.8710976740149 C52.14483931625176 191.12447998040273, 40.26365623946462 183.46700251148482, 30.98953616587474 174.51044096495042 C21.715416092284855 165.55387941841602, 13.648795183040637 153.94659293114165, 8.487567241521361 142.13172839480853 C3.3263393000020853 130.31686385847541, 0.29161986776826865 116.51143193988841, 0.022168516759080603 103.62125374695171 C-0.24728283425010744 90.731075554015, 2.207870807261526 76.81088543003713, 6.870859135466233 64.79065923718835 C11.533847463670941 52.77043304433956, 19.108365254284088 40.83619018059647, 28.000098485987323 31.499896589858977 C36.89183171769056 22.163602999121487, 48.44263796802867 14.016312194303634, 60.22125852568565 8.772897692763422 C71.99987908334263 3.5294831912232114, 91.79203158621016 1.5015591960782853, 98.67182183192921 0.03940958061771482 C105.55161207764826 -1.4227400348428556, 101.02863697198819 -0.33176506989704774, 101.49999999999999 0 C101.97136302801178 0.33176506989704774, 101.5 0.3383333333333358, 101.5 2.030000000000001 M101.5 0 C113.74834443234226 -1.564021376586825, 128.25883358516285 2.7455361867739114, 140.17898241792295 7.658717404790309 C152.09913125068306 12.571898622806707, 163.8724673291294 20.394176428859893, 173.0208929965607 29.479087308098386 C182.169318663992 38.56399818733688, 190.07342912997643 50.282552288958556, 195.06953642251068 62.16818268022126 C200.06564371504493 74.05381307148396, 202.90771382186364 87.90018840942156, 202.99753675176623 100.79286965567461 C203.08735968166883 113.68555090192766, 200.43849067478527 127.57018145068517, 195.60847400192628 139.52427015773958 C190.7784573290673 151.478358864794, 183.03839185214713 163.30590547869946, 174.0174367146123 172.51740189800103 C164.99648157707747 181.7288983173026, 153.33327823469807 189.71445780211198, 141.48274317671738 194.79324867354904 C129.63220811873668 199.8720395449861, 115.8059689490043 202.8105056265457, 102.91422636672817 202.99014712662336 C90.02248378445205 203.169788626701, 76.11973604986957 200.61771536762706, 64.13228768306067 195.8710976740149 C52.14483931625176 191.12447998040273, 40.26365623946462 183.46700251148482, 30.98953616587474 174.51044096495042 C21.715416092284855 165.55387941841602, 13.648795183040637 153.94659293114165, 8.487567241521361 142.13172839480853 C3.3263393000020853 130.31686385847541, 0.29161986776826865 116.51143193988841, 0.022168516759080603 103.62125374695171 C-0.24728283425010744 90.731075554015, 2.207870807261526 76.81088543003713, 6.870859135466233 64.79065923718835 C11.533847463670941 52.77043304433956, 19.108365254284088 40.83619018059647, 28.000098485987323 31.499896589858977 C36.89183171769056 22.163602999121487, 48.44263796802867 14.016312194303634, 60.22125852568565 8.772897692763422 C71.99987908334263 3.5294831912232114, 91.79203158621016 1.5015591960782853, 98.67182183192921 0.03940958061771482 C105.55161207764826 -1.4227400348428556, 101.02863697198819 -0.33176506989704774, 101.49999999999999 0 C101.97136302801178 0.33176506989704774, 101.5 0.3383333333333358, 101.5 2.030000000000001" stroke="#000000" stroke-width="1" fill="none"></path></g><g transform="translate(52.5 322.0975829725838) rotate(0 57.5 17.5)"><text x="57.5" y="25" font-family="Virgil, Segoe UI Emoji" font-size="28px" fill="#000000" text-anchor="middle" style="white-space: pre;" direction="ltr">Pregame</text></g><g><g transform="translate(229.5 384.5975829725838) rotate(0 53.49999999999994 -1)"><path d="M0 0 C17.833333333333314 -0.3333333333333333, 89.16666666666657 -1.6666666666666667, 106.99999999999989 -2 M0 0 C17.833333333333314 -0.3333333333333333, 89.16666666666657 -1.6666666666666667, 106.99999999999989 -2" stroke="#000000" stroke-width="1" fill="none"></path></g><g transform="translate(229.5 384.5975829725838) rotate(0 53.49999999999994 -1)"><path d="M79.00589817216323 8.785650784848915 C88.4580598670367 5.143893823693029, 97.91022156191016 1.5021368625371423, 106.99999999999989 -2 M79.00589817216323 8.785650784848915 C88.88452673983141 4.979583398962896, 98.7631553074996 1.1735160130768785, 106.99999999999989 -2" stroke="#000000" stroke-width="1" fill="none"></path></g><g transform="translate(229.5 384.5975829725838) rotate(0 53.49999999999994 -1)"><path d="M78.62239116777201 -11.731973950081354 C88.20404336171259 -8.44598921114629, 97.78569555565318 -5.160004472211228, 106.99999999999989 -2 M78.62239116777201 -11.731973950081354 C88.63635264495018 -8.297730677183118, 98.65031412212835 -4.863487404284882, 106.99999999999989 -2" stroke="#000000" stroke-width="1" fill="none"></path></g></g><g transform="translate(231.3750000000001 340.2225829725841) rotate(0 46 10)"><text x="46" y="14" font-family="Virgil, Segoe UI Emoji" font-size="16px" fill="#000000" text-anchor="middle" style="white-space: pre;" direction="ltr">Start game</text></g></svg>